<svg xmlns="http://www.w3.org/2000/svg" viewBox="0 0 17.13 16.73"><defs><style>.cls-1{fill:#fff;}</style></defs><title>ico-telefono</title><g id="Capa_2" data-name="Capa 2"><g id="Capa_1-2" data-name="Capa 1"><path class="cls-1" d="M7.15,11a2.5,2.5,0,0,0,1.45.8A1.92,1.92,0,0,0,10.24,11a1.59,1.59,0,0,1,.72-.56,1.51,1.51,0,0,1,1.17.19c.83.63,1.68,1.26,2.49,1.9a1.34,1.34,0,0,1,.36,1.3,2.42,2.42,0,0,1-.64,1,5.34,5.34,0,0,1-4.61,1.89c-1.54-.27-3-1.35-4.69-3l-2-2C1.41,10.05.32,8.56.06,7A5.23,5.23,0,0,1,1.94,2.4a2.51,2.51,0,0,1,1-.63,1.27,1.27,0,0,1,1.29.36c.65.81,1.28,1.66,1.9,2.48a1.45,1.45,0,0,1,.19,1.18,1.71,1.71,0,0,1-.55.72A1.88,1.88,0,0,0,5,8.14a2.48,2.48,0,0,0,.79,1.45m-.56.57a3.2,3.2,0,0,1-1-1.94,2.77,2.77,0,0,1,1-2.31,1.17,1.17,0,0,0,.33-.38c0-.08,0-.21-.13-.52L3.63,2.69c-.23-.23-.32-.22-.5-.17A2.13,2.13,0,0,0,2.5,3C1.08,4.4.63,5.61.85,6.87S2,9.53,3.63,11.14l2,2c1.61,1.61,3,2.57,4.27,2.79s2.47-.23,3.9-1.66a1.82,1.82,0,0,0,.45-.63c0-.17.06-.27-.17-.5l-2.31-1.76c-.31-.17-.44-.16-.53-.13a1.15,1.15,0,0,0-.38.33,2.72,2.72,0,0,1-2.3,1,3.18,3.18,0,0,1-1.94-1"/><path class="cls-1" d="M7.55.42A.42.42,0,0,0,8,.8a8.36,8.36,0,0,1,8.37,8.36.4.4,0,1,0,.79,0A9.17,9.17,0,0,0,8,0,.42.42,0,0,0,7.55.42Zm0,2.39A.42.42,0,0,0,8,3.19a6,6,0,0,1,6,6,.41.41,0,0,0,.39.41.42.42,0,0,0,.4-.41A6.78,6.78,0,0,0,8,2.39a.43.43,0,0,0-.42.42Z"/></g></g></svg>