<svg xmlns="http://www.w3.org/2000/svg" viewBox="0 0 12.85 16.87"><defs><style>.cls-1{fill:none;stroke:#fff;stroke-miterlimit:10;}</style></defs><title>ico-posicion</title><g id="Capa_2" data-name="Capa 2"><g id="Capa_1-2" data-name="Capa 1"><path class="cls-1" d="M6.42.5A5.89,5.89,0,0,0,.5,6.34,5.56,5.56,0,0,0,1,8.73a36.82,36.82,0,0,0,5.16,7.53.33.33,0,0,0,.25.11.32.32,0,0,0,.24-.11,36.82,36.82,0,0,0,5.16-7.53,5.71,5.71,0,0,0,.52-2.39A5.89,5.89,0,0,0,6.42.5Zm0,8.88a3,3,0,1,1,3.08-3A3.06,3.06,0,0,1,6.42,9.38Z"/></g></g></svg>