<!-- Generator: Adobe Illustrator 19.0.0, SVG Export Plug-In  -->
<svg version="1.1"
	 xmlns="http://www.w3.org/2000/svg" xmlns:xlink="http://www.w3.org/1999/xlink" xmlns:a="http://ns.adobe.com/AdobeSVGViewerExtensions/3.0/"
	 x="0px" y="0px" width="18.7px" height="12.3px" viewBox="0 0 18.7 12.3" style="enable-background:new 0 0 18.7 12.3;"
	 xml:space="preserve">
<style type="text/css">
	.st0{fill:#FFFFFF;}
</style>
<defs>
</defs>
<g transform="translate(0,-952.36218)">
	<path class="st0" d="M1.9,952.4c-1,0-1.9,0.8-1.9,1.9v8.6c0,1,0.8,1.9,1.9,1.9h15c1,0,1.9-0.8,1.9-1.9v-8.6c0-1-0.8-1.9-1.9-1.9
		H1.9z M1.9,953.2h15c0.6,0,1,0.4,1,1v0.2l-8.5,5.1l-8.5-5.1v-0.2C0.8,953.7,1.3,953.2,1.9,953.2z M0.8,955.4l8.3,4.9
		c0.1,0.1,0.3,0.1,0.4,0l8.3-4.9v7.4c0,0.6-0.4,1-1,1h-15c-0.6,0-1-0.4-1-1V955.4z"/>
</g>
</svg>
